<mxfile host="Electron" agent="Mozilla/5.0 (Windows NT 10.0; Win64; x64) AppleWebKit/537.36 (KHTML, like Gecko) draw.io/24.7.5 Chrome/126.0.6478.183 Electron/31.3.0 Safari/537.36" version="24.7.5" pages="4">
  <diagram name="C-2-1経由" id="2YBvvXClWsGukQMizWep">
    <mxGraphModel dx="1036" dy="702" grid="1" gridSize="10" guides="1" tooltips="1" connect="1" arrows="1" fold="1" page="1" pageScale="1" pageWidth="850" pageHeight="1100" math="0" shadow="0">
      <root>
        <mxCell id="0" />
        <mxCell id="1" parent="0" />
        <mxCell id="Qv2kMFumS-zRc43ijODE-3" value=":C-2-2 [B]" style="shape=umlLifeline;perimeter=lifelinePerimeter;whiteSpace=wrap;html=1;container=0;dropTarget=0;collapsible=0;recursiveResize=0;outlineConnect=0;portConstraint=eastwest;newEdgeStyle={&quot;edgeStyle&quot;:&quot;elbowEdgeStyle&quot;,&quot;elbow&quot;:&quot;vertical&quot;,&quot;curved&quot;:0,&quot;rounded&quot;:0};" parent="1" vertex="1">
          <mxGeometry x="720" y="80" width="100" height="530" as="geometry" />
        </mxCell>
        <mxCell id="Qv2kMFumS-zRc43ijODE-52" value="" style="html=1;points=[];perimeter=orthogonalPerimeter;outlineConnect=0;targetShapes=umlLifeline;portConstraint=eastwest;newEdgeStyle={&quot;edgeStyle&quot;:&quot;elbowEdgeStyle&quot;,&quot;elbow&quot;:&quot;vertical&quot;,&quot;curved&quot;:0,&quot;rounded&quot;:0};" parent="Qv2kMFumS-zRc43ijODE-3" vertex="1">
          <mxGeometry x="45" y="315" width="10" height="40" as="geometry" />
        </mxCell>
        <mxCell id="aM9ryv3xv72pqoxQDRHE-1" value=":App" style="shape=umlLifeline;perimeter=lifelinePerimeter;whiteSpace=wrap;html=1;container=0;dropTarget=0;collapsible=0;recursiveResize=0;outlineConnect=0;portConstraint=eastwest;newEdgeStyle={&quot;edgeStyle&quot;:&quot;elbowEdgeStyle&quot;,&quot;elbow&quot;:&quot;vertical&quot;,&quot;curved&quot;:0,&quot;rounded&quot;:0};" parent="1" vertex="1">
          <mxGeometry x="200" y="80" width="100" height="530" as="geometry" />
        </mxCell>
        <mxCell id="aM9ryv3xv72pqoxQDRHE-2" value="" style="html=1;points=[];perimeter=orthogonalPerimeter;outlineConnect=0;targetShapes=umlLifeline;portConstraint=eastwest;newEdgeStyle={&quot;edgeStyle&quot;:&quot;elbowEdgeStyle&quot;,&quot;elbow&quot;:&quot;vertical&quot;,&quot;curved&quot;:0,&quot;rounded&quot;:0};" parent="aM9ryv3xv72pqoxQDRHE-1" vertex="1">
          <mxGeometry x="45" y="70" width="10" height="440" as="geometry" />
        </mxCell>
        <mxCell id="aM9ryv3xv72pqoxQDRHE-5" value=":C-2-1" style="shape=umlLifeline;perimeter=lifelinePerimeter;whiteSpace=wrap;html=1;container=0;dropTarget=0;collapsible=0;recursiveResize=0;outlineConnect=0;portConstraint=eastwest;newEdgeStyle={&quot;edgeStyle&quot;:&quot;elbowEdgeStyle&quot;,&quot;elbow&quot;:&quot;vertical&quot;,&quot;curved&quot;:0,&quot;rounded&quot;:0};" parent="1" vertex="1">
          <mxGeometry x="380" y="80" width="100" height="400" as="geometry" />
        </mxCell>
        <mxCell id="Qv2kMFumS-zRc43ijODE-8" style="edgeStyle=elbowEdgeStyle;rounded=0;orthogonalLoop=1;jettySize=auto;html=1;elbow=vertical;curved=0;" parent="aM9ryv3xv72pqoxQDRHE-5" source="aM9ryv3xv72pqoxQDRHE-6" target="aM9ryv3xv72pqoxQDRHE-5" edge="1">
          <mxGeometry relative="1" as="geometry" />
        </mxCell>
        <mxCell id="aM9ryv3xv72pqoxQDRHE-6" value="" style="html=1;points=[];perimeter=orthogonalPerimeter;outlineConnect=0;targetShapes=umlLifeline;portConstraint=eastwest;newEdgeStyle={&quot;edgeStyle&quot;:&quot;elbowEdgeStyle&quot;,&quot;elbow&quot;:&quot;vertical&quot;,&quot;curved&quot;:0,&quot;rounded&quot;:0};" parent="aM9ryv3xv72pqoxQDRHE-5" vertex="1">
          <mxGeometry x="45" y="80" width="10" height="60" as="geometry" />
        </mxCell>
        <mxCell id="Qv2kMFumS-zRc43ijODE-7" value="" style="html=1;points=[];perimeter=orthogonalPerimeter;outlineConnect=0;targetShapes=umlLifeline;portConstraint=eastwest;newEdgeStyle={&quot;edgeStyle&quot;:&quot;elbowEdgeStyle&quot;,&quot;elbow&quot;:&quot;vertical&quot;,&quot;curved&quot;:0,&quot;rounded&quot;:0};" parent="aM9ryv3xv72pqoxQDRHE-5" vertex="1">
          <mxGeometry x="45" y="190" width="10" height="70" as="geometry" />
        </mxCell>
        <mxCell id="Qv2kMFumS-zRc43ijODE-48" value="" style="html=1;points=[];perimeter=orthogonalPerimeter;outlineConnect=0;targetShapes=umlLifeline;portConstraint=eastwest;newEdgeStyle={&quot;edgeStyle&quot;:&quot;elbowEdgeStyle&quot;,&quot;elbow&quot;:&quot;vertical&quot;,&quot;curved&quot;:0,&quot;rounded&quot;:0};" parent="aM9ryv3xv72pqoxQDRHE-5" vertex="1">
          <mxGeometry x="45" y="300" width="10" height="80" as="geometry" />
        </mxCell>
        <mxCell id="aM9ryv3xv72pqoxQDRHE-7" value="login" style="html=1;verticalAlign=bottom;endArrow=block;edgeStyle=elbowEdgeStyle;elbow=horizontal;curved=0;rounded=0;" parent="1" edge="1">
          <mxGeometry relative="1" as="geometry">
            <mxPoint x="256" y="160" as="sourcePoint" />
            <Array as="points">
              <mxPoint x="341" y="160" />
            </Array>
            <mxPoint x="426" y="160" as="targetPoint" />
          </mxGeometry>
        </mxCell>
        <mxCell id="aM9ryv3xv72pqoxQDRHE-9" value="201 created" style="html=1;verticalAlign=bottom;endArrow=block;edgeStyle=elbowEdgeStyle;elbow=vertical;curved=0;rounded=0;dashed=1;" parent="1" source="aM9ryv3xv72pqoxQDRHE-6" target="aM9ryv3xv72pqoxQDRHE-2" edge="1">
          <mxGeometry relative="1" as="geometry">
            <mxPoint x="335" y="200" as="sourcePoint" />
            <Array as="points">
              <mxPoint x="350" y="200" />
            </Array>
            <mxPoint x="260" y="200" as="targetPoint" />
          </mxGeometry>
        </mxCell>
        <mxCell id="Qv2kMFumS-zRc43ijODE-1" value=":C-2-2 [A]" style="shape=umlLifeline;perimeter=lifelinePerimeter;whiteSpace=wrap;html=1;container=0;dropTarget=0;collapsible=0;recursiveResize=0;outlineConnect=0;portConstraint=eastwest;newEdgeStyle={&quot;edgeStyle&quot;:&quot;elbowEdgeStyle&quot;,&quot;elbow&quot;:&quot;vertical&quot;,&quot;curved&quot;:0,&quot;rounded&quot;:0};" parent="1" vertex="1">
          <mxGeometry x="560" y="80" width="120" height="530" as="geometry" />
        </mxCell>
        <mxCell id="Qv2kMFumS-zRc43ijODE-2" value="" style="html=1;points=[];perimeter=orthogonalPerimeter;outlineConnect=0;targetShapes=umlLifeline;portConstraint=eastwest;newEdgeStyle={&quot;edgeStyle&quot;:&quot;elbowEdgeStyle&quot;,&quot;elbow&quot;:&quot;vertical&quot;,&quot;curved&quot;:0,&quot;rounded&quot;:0};" parent="Qv2kMFumS-zRc43ijODE-1" vertex="1">
          <mxGeometry x="55" y="200" width="10" height="50" as="geometry" />
        </mxCell>
        <mxCell id="Qv2kMFumS-zRc43ijODE-14" value="" style="html=1;points=[];perimeter=orthogonalPerimeter;outlineConnect=0;targetShapes=umlLifeline;portConstraint=eastwest;newEdgeStyle={&quot;edgeStyle&quot;:&quot;elbowEdgeStyle&quot;,&quot;elbow&quot;:&quot;vertical&quot;,&quot;curved&quot;:0,&quot;rounded&quot;:0};" parent="Qv2kMFumS-zRc43ijODE-1" vertex="1">
          <mxGeometry x="55" y="450" width="10" height="60" as="geometry" />
        </mxCell>
        <mxCell id="Qv2kMFumS-zRc43ijODE-15" value="GET /map/{z}/{x}/{y}.pbf" style="html=1;verticalAlign=bottom;endArrow=block;edgeStyle=elbowEdgeStyle;elbow=horizontal;curved=0;rounded=0;" parent="Qv2kMFumS-zRc43ijODE-1" target="Qv2kMFumS-zRc43ijODE-4" edge="1">
          <mxGeometry relative="1" as="geometry">
            <mxPoint x="64.99999999999977" y="470" as="sourcePoint" />
            <Array as="points">
              <mxPoint x="150" y="470" />
            </Array>
            <mxPoint x="430" y="470" as="targetPoint" />
          </mxGeometry>
        </mxCell>
        <mxCell id="Qv2kMFumS-zRc43ijODE-16" value="200 OK" style="html=1;verticalAlign=bottom;endArrow=block;edgeStyle=elbowEdgeStyle;elbow=vertical;curved=0;rounded=0;dashed=1;" parent="Qv2kMFumS-zRc43ijODE-1" source="Qv2kMFumS-zRc43ijODE-4" target="Qv2kMFumS-zRc43ijODE-14" edge="1">
          <mxGeometry relative="1" as="geometry">
            <mxPoint x="200" y="490" as="sourcePoint" />
            <Array as="points">
              <mxPoint x="130" y="490" />
            </Array>
            <mxPoint x="30" y="490" as="targetPoint" />
          </mxGeometry>
        </mxCell>
        <mxCell id="Qv2kMFumS-zRc43ijODE-4" value="" style="html=1;points=[];perimeter=orthogonalPerimeter;outlineConnect=0;targetShapes=umlLifeline;portConstraint=eastwest;newEdgeStyle={&quot;edgeStyle&quot;:&quot;elbowEdgeStyle&quot;,&quot;elbow&quot;:&quot;vertical&quot;,&quot;curved&quot;:0,&quot;rounded&quot;:0};" parent="Qv2kMFumS-zRc43ijODE-1" vertex="1">
          <mxGeometry x="205" y="460" width="10" height="40" as="geometry" />
        </mxCell>
        <mxCell id="Qv2kMFumS-zRc43ijODE-49" value="" style="html=1;points=[];perimeter=orthogonalPerimeter;outlineConnect=0;targetShapes=umlLifeline;portConstraint=eastwest;newEdgeStyle={&quot;edgeStyle&quot;:&quot;elbowEdgeStyle&quot;,&quot;elbow&quot;:&quot;vertical&quot;,&quot;curved&quot;:0,&quot;rounded&quot;:0};" parent="Qv2kMFumS-zRc43ijODE-1" vertex="1">
          <mxGeometry x="55" y="300" width="10" height="70" as="geometry" />
        </mxCell>
        <mxCell id="Qv2kMFumS-zRc43ijODE-5" value="GET /Facade" style="html=1;verticalAlign=bottom;endArrow=block;edgeStyle=elbowEdgeStyle;elbow=vertical;curved=0;rounded=0;" parent="1" source="aM9ryv3xv72pqoxQDRHE-2" target="Qv2kMFumS-zRc43ijODE-7" edge="1">
          <mxGeometry relative="1" as="geometry">
            <mxPoint x="260" y="280" as="sourcePoint" />
            <Array as="points">
              <mxPoint x="335" y="280" />
            </Array>
            <mxPoint x="420" y="280" as="targetPoint" />
          </mxGeometry>
        </mxCell>
        <mxCell id="Qv2kMFumS-zRc43ijODE-6" value="GET /Facade" style="html=1;verticalAlign=bottom;endArrow=block;edgeStyle=elbowEdgeStyle;elbow=horizontal;curved=0;rounded=0;" parent="1" source="Qv2kMFumS-zRc43ijODE-7" target="Qv2kMFumS-zRc43ijODE-2" edge="1">
          <mxGeometry relative="1" as="geometry">
            <mxPoint x="440" y="290" as="sourcePoint" />
            <Array as="points">
              <mxPoint x="520" y="290" />
            </Array>
            <mxPoint x="610" y="290" as="targetPoint" />
          </mxGeometry>
        </mxCell>
        <mxCell id="Qv2kMFumS-zRc43ijODE-9" value="200 OK" style="html=1;verticalAlign=bottom;endArrow=block;edgeStyle=elbowEdgeStyle;elbow=vertical;curved=0;rounded=0;dashed=1;" parent="1" source="Qv2kMFumS-zRc43ijODE-2" target="Qv2kMFumS-zRc43ijODE-7" edge="1">
          <mxGeometry relative="1" as="geometry">
            <mxPoint x="610" y="320" as="sourcePoint" />
            <Array as="points">
              <mxPoint x="535" y="320" />
            </Array>
            <mxPoint x="440" y="320" as="targetPoint" />
          </mxGeometry>
        </mxCell>
        <mxCell id="Qv2kMFumS-zRc43ijODE-10" value="200 OK" style="html=1;verticalAlign=bottom;endArrow=block;edgeStyle=elbowEdgeStyle;elbow=vertical;curved=0;rounded=0;dashed=1;" parent="1" source="Qv2kMFumS-zRc43ijODE-7" target="aM9ryv3xv72pqoxQDRHE-2" edge="1">
          <mxGeometry relative="1" as="geometry">
            <mxPoint x="420" y="330" as="sourcePoint" />
            <Array as="points">
              <mxPoint x="340" y="330" />
            </Array>
            <mxPoint x="260" y="330" as="targetPoint" />
          </mxGeometry>
        </mxCell>
        <mxCell id="Qv2kMFumS-zRc43ijODE-11" value="&lt;div style=&quot;&quot;&gt;&lt;span style=&quot;font-size: 10px;&quot;&gt;ログイン&lt;/span&gt;&lt;/div&gt;" style="shape=note;whiteSpace=wrap;html=1;backgroundOutline=1;fontColor=#000000;darkOpacity=0.05;fillColor=#FFF9B2;strokeColor=none;fillStyle=solid;direction=west;gradientDirection=north;gradientColor=#FFF2A1;shadow=1;size=20;pointerEvents=1;align=center;" parent="1" vertex="1">
          <mxGeometry x="50" y="150" width="170" height="40" as="geometry" />
        </mxCell>
        <mxCell id="Qv2kMFumS-zRc43ijODE-12" value="&lt;div style=&quot;text-align: left;&quot;&gt;&lt;span style=&quot;font-size: 10px; background-color: initial;&quot;&gt;直接アクセス・ポイント情報を取得&lt;/span&gt;&lt;/div&gt;&lt;font style=&quot;font-size: 10px;&quot;&gt;　（URL※, アクセストークン(JWT))&lt;br&gt;※C-2-2[A]のアクセスポイントURL&lt;/font&gt;" style="shape=note;whiteSpace=wrap;html=1;backgroundOutline=1;fontColor=#000000;darkOpacity=0.05;fillColor=#FFF9B2;strokeColor=none;fillStyle=solid;direction=west;gradientDirection=north;gradientColor=#FFF2A1;shadow=1;size=20;pointerEvents=1;" parent="1" vertex="1">
          <mxGeometry x="50" y="270" width="170" height="60" as="geometry" />
        </mxCell>
        <mxCell id="Qv2kMFumS-zRc43ijODE-18" value="&lt;div style=&quot;text-align: left;&quot;&gt;&lt;span style=&quot;font-size: 10px;&quot;&gt;現行API規約の取扱対象外のデータを取得する場合は、直接アクセス・ポイントを使用する。&lt;br&gt;　　（バイナリデータ取得、等）&lt;/span&gt;&lt;/div&gt;" style="shape=note;whiteSpace=wrap;html=1;backgroundOutline=1;fontColor=#000000;darkOpacity=0.05;fillColor=#FFF9B2;strokeColor=none;fillStyle=solid;direction=west;gradientDirection=north;gradientColor=#FFF2A1;shadow=1;size=20;pointerEvents=1;" parent="1" vertex="1">
          <mxGeometry x="50" y="510" width="170" height="70" as="geometry" />
        </mxCell>
        <mxCell id="Qv2kMFumS-zRc43ijODE-19" value="&lt;font style=&quot;font-size: 18px;&quot;&gt;アプリがデータ流通システム(C-2-1)を通じて通信する場合&lt;/font&gt;" style="text;strokeColor=none;fillColor=none;html=1;fontSize=24;fontStyle=1;verticalAlign=middle;align=center;" parent="1" vertex="1">
          <mxGeometry width="490" height="40" as="geometry" />
        </mxCell>
        <mxCell id="Qv2kMFumS-zRc43ijODE-46" value="GET /map/{z}/{x}/{y}.pbf" style="html=1;verticalAlign=bottom;endArrow=block;edgeStyle=elbowEdgeStyle;elbow=horizontal;curved=0;rounded=0;" parent="1" source="aM9ryv3xv72pqoxQDRHE-2" target="Qv2kMFumS-zRc43ijODE-14" edge="1">
          <mxGeometry relative="1" as="geometry">
            <mxPoint x="469.9999999999998" y="540" as="sourcePoint" />
            <Array as="points">
              <mxPoint x="555" y="540" />
            </Array>
            <mxPoint x="610" y="540" as="targetPoint" />
          </mxGeometry>
        </mxCell>
        <mxCell id="Qv2kMFumS-zRc43ijODE-47" value="200 OK" style="html=1;verticalAlign=bottom;endArrow=block;edgeStyle=elbowEdgeStyle;elbow=vertical;curved=0;rounded=0;dashed=1;" parent="1" source="Qv2kMFumS-zRc43ijODE-14" target="aM9ryv3xv72pqoxQDRHE-2" edge="1">
          <mxGeometry relative="1" as="geometry">
            <mxPoint x="610" y="580" as="sourcePoint" />
            <Array as="points">
              <mxPoint x="535" y="580" />
            </Array>
            <mxPoint x="470" y="580" as="targetPoint" />
          </mxGeometry>
        </mxCell>
        <mxCell id="Qv2kMFumS-zRc43ijODE-50" value="GET /{targetDataModel}" style="html=1;verticalAlign=bottom;endArrow=block;edgeStyle=elbowEdgeStyle;elbow=horizontal;curved=0;rounded=0;" parent="1" edge="1">
          <mxGeometry relative="1" as="geometry">
            <mxPoint x="255" y="390" as="sourcePoint" />
            <Array as="points">
              <mxPoint x="335" y="390" />
            </Array>
            <mxPoint x="425" y="390" as="targetPoint" />
          </mxGeometry>
        </mxCell>
        <mxCell id="Qv2kMFumS-zRc43ijODE-51" value="GET /{targetDataModel}" style="html=1;verticalAlign=bottom;endArrow=block;edgeStyle=elbowEdgeStyle;elbow=horizontal;curved=0;rounded=0;" parent="1" source="Qv2kMFumS-zRc43ijODE-48" target="Qv2kMFumS-zRc43ijODE-49" edge="1">
          <mxGeometry relative="1" as="geometry">
            <mxPoint x="440" y="400" as="sourcePoint" />
            <Array as="points">
              <mxPoint x="520" y="400" />
            </Array>
            <mxPoint x="610" y="400" as="targetPoint" />
          </mxGeometry>
        </mxCell>
        <mxCell id="Qv2kMFumS-zRc43ijODE-53" value="GET /{targetDataModel}" style="html=1;verticalAlign=bottom;endArrow=block;edgeStyle=elbowEdgeStyle;elbow=horizontal;curved=0;rounded=0;" parent="1" source="Qv2kMFumS-zRc43ijODE-49" target="Qv2kMFumS-zRc43ijODE-52" edge="1">
          <mxGeometry relative="1" as="geometry">
            <mxPoint x="630" y="410" as="sourcePoint" />
            <Array as="points">
              <mxPoint x="715" y="410" />
            </Array>
            <mxPoint x="760" y="410" as="targetPoint" />
          </mxGeometry>
        </mxCell>
        <mxCell id="Qv2kMFumS-zRc43ijODE-54" value="200 OK" style="html=1;verticalAlign=bottom;endArrow=block;edgeStyle=elbowEdgeStyle;elbow=vertical;curved=0;rounded=0;dashed=1;" parent="1" source="Qv2kMFumS-zRc43ijODE-52" target="Qv2kMFumS-zRc43ijODE-49" edge="1">
          <mxGeometry relative="1" as="geometry">
            <mxPoint x="760" y="430" as="sourcePoint" />
            <Array as="points">
              <mxPoint x="695" y="430" />
            </Array>
            <mxPoint x="630" y="430" as="targetPoint" />
          </mxGeometry>
        </mxCell>
        <mxCell id="Qv2kMFumS-zRc43ijODE-55" value="200 OK" style="html=1;verticalAlign=bottom;endArrow=block;edgeStyle=elbowEdgeStyle;elbow=vertical;curved=0;rounded=0;dashed=1;" parent="1" source="Qv2kMFumS-zRc43ijODE-49" target="Qv2kMFumS-zRc43ijODE-48" edge="1">
          <mxGeometry relative="1" as="geometry">
            <mxPoint x="610" y="440" as="sourcePoint" />
            <Array as="points">
              <mxPoint x="530" y="440" />
            </Array>
            <mxPoint x="450" y="440" as="targetPoint" />
          </mxGeometry>
        </mxCell>
        <mxCell id="Qv2kMFumS-zRc43ijODE-56" value="200 OK" style="html=1;verticalAlign=bottom;endArrow=block;edgeStyle=elbowEdgeStyle;elbow=vertical;curved=0;rounded=0;dashed=1;" parent="1" edge="1">
          <mxGeometry relative="1" as="geometry">
            <mxPoint x="425" y="450" as="sourcePoint" />
            <Array as="points">
              <mxPoint x="340" y="450" />
            </Array>
            <mxPoint x="255" y="450" as="targetPoint" />
          </mxGeometry>
        </mxCell>
        <mxCell id="Qv2kMFumS-zRc43ijODE-57" value="&lt;div style=&quot;text-align: left;&quot;&gt;&lt;span style=&quot;font-size: 10px;&quot;&gt;規約に則ったデータ取得。&lt;br&gt;　　（JSONデータ取得、等）&lt;/span&gt;&lt;/div&gt;" style="shape=note;whiteSpace=wrap;html=1;backgroundOutline=1;fontColor=#000000;darkOpacity=0.05;fillColor=#FFF9B2;strokeColor=none;fillStyle=solid;direction=west;gradientDirection=north;gradientColor=#FFF2A1;shadow=1;size=20;pointerEvents=1;" parent="1" vertex="1">
          <mxGeometry x="50" y="380" width="170" height="50" as="geometry" />
        </mxCell>
        <mxCell id="Qv2kMFumS-zRc43ijODE-64" value="" style="shape=doubleArrow;whiteSpace=wrap;html=1;fillColor=#e1d5e7;strokeColor=#9673a6;" parent="1" vertex="1">
          <mxGeometry x="680" y="90" width="40" height="20" as="geometry" />
        </mxCell>
        <mxCell id="Qv2kMFumS-zRc43ijODE-65" value="&lt;span style=&quot;font-size: 8px;&quot;&gt;認証済みの前提&lt;/span&gt;" style="whiteSpace=wrap;html=1;rounded=1;arcSize=50;align=center;verticalAlign=middle;strokeWidth=1;autosize=1;spacing=4;treeFolding=1;treeMoving=1;newEdgeStyle={&quot;edgeStyle&quot;:&quot;entityRelationEdgeStyle&quot;,&quot;startArrow&quot;:&quot;none&quot;,&quot;endArrow&quot;:&quot;none&quot;,&quot;segment&quot;:10,&quot;curved&quot;:1,&quot;sourcePerimeterSpacing&quot;:0,&quot;targetPerimeterSpacing&quot;:0};" parent="1" vertex="1">
          <mxGeometry x="740" y="20" width="100" height="30" as="geometry" />
        </mxCell>
        <mxCell id="Qv2kMFumS-zRc43ijODE-66" value="" style="edgeStyle=entityRelationEdgeStyle;startArrow=none;endArrow=none;segment=10;curved=1;sourcePerimeterSpacing=0;targetPerimeterSpacing=0;rounded=0;" parent="1" target="Qv2kMFumS-zRc43ijODE-65" edge="1">
          <mxGeometry relative="1" as="geometry">
            <mxPoint x="700" y="90" as="sourcePoint" />
            <Array as="points">
              <mxPoint x="700" y="50" />
            </Array>
          </mxGeometry>
        </mxCell>
      </root>
    </mxGraphModel>
  </diagram>
  <diagram name="C-2-2[A]直結" id="NLdyTtYgrq2BtNx32bmI">
    <mxGraphModel dx="1036" dy="702" grid="1" gridSize="10" guides="1" tooltips="1" connect="1" arrows="1" fold="1" page="1" pageScale="1" pageWidth="850" pageHeight="1100" math="0" shadow="0">
      <root>
        <mxCell id="ZPtk3tzUFe9CVUKjO2xV-0" />
        <mxCell id="ZPtk3tzUFe9CVUKjO2xV-1" parent="ZPtk3tzUFe9CVUKjO2xV-0" />
        <mxCell id="ZPtk3tzUFe9CVUKjO2xV-28" value=":App" style="shape=umlLifeline;perimeter=lifelinePerimeter;whiteSpace=wrap;html=1;container=0;dropTarget=0;collapsible=0;recursiveResize=0;outlineConnect=0;portConstraint=eastwest;newEdgeStyle={&quot;edgeStyle&quot;:&quot;elbowEdgeStyle&quot;,&quot;elbow&quot;:&quot;vertical&quot;,&quot;curved&quot;:0,&quot;rounded&quot;:0};" parent="ZPtk3tzUFe9CVUKjO2xV-1" vertex="1">
          <mxGeometry x="200" y="80" width="100" height="420" as="geometry" />
        </mxCell>
        <mxCell id="ZPtk3tzUFe9CVUKjO2xV-29" value="" style="html=1;points=[];perimeter=orthogonalPerimeter;outlineConnect=0;targetShapes=umlLifeline;portConstraint=eastwest;newEdgeStyle={&quot;edgeStyle&quot;:&quot;elbowEdgeStyle&quot;,&quot;elbow&quot;:&quot;vertical&quot;,&quot;curved&quot;:0,&quot;rounded&quot;:0};" parent="ZPtk3tzUFe9CVUKjO2xV-28" vertex="1">
          <mxGeometry x="45" y="70" width="10" height="320" as="geometry" />
        </mxCell>
        <mxCell id="ZPtk3tzUFe9CVUKjO2xV-30" value="login" style="html=1;verticalAlign=bottom;endArrow=block;edgeStyle=elbowEdgeStyle;elbow=horizontal;curved=0;rounded=0;" parent="ZPtk3tzUFe9CVUKjO2xV-1" target="ZPtk3tzUFe9CVUKjO2xV-35" edge="1">
          <mxGeometry relative="1" as="geometry">
            <mxPoint x="256" y="160" as="sourcePoint" />
            <Array as="points">
              <mxPoint x="341" y="160" />
            </Array>
            <mxPoint x="426" y="160" as="targetPoint" />
          </mxGeometry>
        </mxCell>
        <mxCell id="ZPtk3tzUFe9CVUKjO2xV-31" value="201 created" style="html=1;verticalAlign=bottom;endArrow=block;edgeStyle=elbowEdgeStyle;elbow=vertical;curved=0;rounded=0;dashed=1;" parent="ZPtk3tzUFe9CVUKjO2xV-1" source="ZPtk3tzUFe9CVUKjO2xV-35" target="ZPtk3tzUFe9CVUKjO2xV-29" edge="1">
          <mxGeometry relative="1" as="geometry">
            <mxPoint x="335" y="200" as="sourcePoint" />
            <Array as="points">
              <mxPoint x="350" y="200" />
            </Array>
            <mxPoint x="260" y="200" as="targetPoint" />
          </mxGeometry>
        </mxCell>
        <mxCell id="ZPtk3tzUFe9CVUKjO2xV-32" value=":C-2-2 [A]" style="shape=umlLifeline;perimeter=lifelinePerimeter;whiteSpace=wrap;html=1;container=0;dropTarget=0;collapsible=0;recursiveResize=0;outlineConnect=0;portConstraint=eastwest;newEdgeStyle={&quot;edgeStyle&quot;:&quot;elbowEdgeStyle&quot;,&quot;elbow&quot;:&quot;vertical&quot;,&quot;curved&quot;:0,&quot;rounded&quot;:0};" parent="ZPtk3tzUFe9CVUKjO2xV-1" vertex="1">
          <mxGeometry x="560" y="80" width="120" height="420" as="geometry" />
        </mxCell>
        <mxCell id="ZPtk3tzUFe9CVUKjO2xV-33" value="" style="html=1;points=[];perimeter=orthogonalPerimeter;outlineConnect=0;targetShapes=umlLifeline;portConstraint=eastwest;newEdgeStyle={&quot;edgeStyle&quot;:&quot;elbowEdgeStyle&quot;,&quot;elbow&quot;:&quot;vertical&quot;,&quot;curved&quot;:0,&quot;rounded&quot;:0};" parent="ZPtk3tzUFe9CVUKjO2xV-32" vertex="1">
          <mxGeometry x="55" y="200" width="10" height="50" as="geometry" />
        </mxCell>
        <mxCell id="ZPtk3tzUFe9CVUKjO2xV-34" value="" style="html=1;points=[];perimeter=orthogonalPerimeter;outlineConnect=0;targetShapes=umlLifeline;portConstraint=eastwest;newEdgeStyle={&quot;edgeStyle&quot;:&quot;elbowEdgeStyle&quot;,&quot;elbow&quot;:&quot;vertical&quot;,&quot;curved&quot;:0,&quot;rounded&quot;:0};" parent="ZPtk3tzUFe9CVUKjO2xV-32" vertex="1">
          <mxGeometry x="55" y="330" width="10" height="60" as="geometry" />
        </mxCell>
        <mxCell id="ZPtk3tzUFe9CVUKjO2xV-35" value="" style="html=1;points=[];perimeter=orthogonalPerimeter;outlineConnect=0;targetShapes=umlLifeline;portConstraint=eastwest;newEdgeStyle={&quot;edgeStyle&quot;:&quot;elbowEdgeStyle&quot;,&quot;elbow&quot;:&quot;vertical&quot;,&quot;curved&quot;:0,&quot;rounded&quot;:0};" parent="ZPtk3tzUFe9CVUKjO2xV-32" vertex="1">
          <mxGeometry x="55" y="80" width="10" height="60" as="geometry" />
        </mxCell>
        <mxCell id="ZPtk3tzUFe9CVUKjO2xV-36" value=":C-2-2 [B]" style="shape=umlLifeline;perimeter=lifelinePerimeter;whiteSpace=wrap;html=1;container=0;dropTarget=0;collapsible=0;recursiveResize=0;outlineConnect=0;portConstraint=eastwest;newEdgeStyle={&quot;edgeStyle&quot;:&quot;elbowEdgeStyle&quot;,&quot;elbow&quot;:&quot;vertical&quot;,&quot;curved&quot;:0,&quot;rounded&quot;:0};" parent="ZPtk3tzUFe9CVUKjO2xV-1" vertex="1">
          <mxGeometry x="720" y="80" width="100" height="420" as="geometry" />
        </mxCell>
        <mxCell id="ZPtk3tzUFe9CVUKjO2xV-37" value="" style="html=1;points=[];perimeter=orthogonalPerimeter;outlineConnect=0;targetShapes=umlLifeline;portConstraint=eastwest;newEdgeStyle={&quot;edgeStyle&quot;:&quot;elbowEdgeStyle&quot;,&quot;elbow&quot;:&quot;vertical&quot;,&quot;curved&quot;:0,&quot;rounded&quot;:0};" parent="ZPtk3tzUFe9CVUKjO2xV-36" vertex="1">
          <mxGeometry x="45" y="340" width="10" height="40" as="geometry" />
        </mxCell>
        <mxCell id="ZPtk3tzUFe9CVUKjO2xV-38" value="GET /Facade" style="html=1;verticalAlign=bottom;endArrow=block;edgeStyle=elbowEdgeStyle;elbow=horizontal;curved=0;rounded=0;" parent="ZPtk3tzUFe9CVUKjO2xV-1" source="ZPtk3tzUFe9CVUKjO2xV-29" target="ZPtk3tzUFe9CVUKjO2xV-33" edge="1">
          <mxGeometry relative="1" as="geometry">
            <mxPoint x="434.9999999999998" y="289.9999999999998" as="sourcePoint" />
            <Array as="points">
              <mxPoint x="520" y="290" />
            </Array>
            <mxPoint x="610" y="290" as="targetPoint" />
          </mxGeometry>
        </mxCell>
        <mxCell id="ZPtk3tzUFe9CVUKjO2xV-39" value="200 OK" style="html=1;verticalAlign=bottom;endArrow=block;edgeStyle=elbowEdgeStyle;elbow=vertical;curved=0;rounded=0;dashed=1;" parent="ZPtk3tzUFe9CVUKjO2xV-1" source="ZPtk3tzUFe9CVUKjO2xV-33" target="ZPtk3tzUFe9CVUKjO2xV-29" edge="1">
          <mxGeometry relative="1" as="geometry">
            <mxPoint x="610" y="320" as="sourcePoint" />
            <Array as="points">
              <mxPoint x="535" y="320" />
            </Array>
            <mxPoint x="434.9999999999998" y="319.9999999999998" as="targetPoint" />
          </mxGeometry>
        </mxCell>
        <mxCell id="ZPtk3tzUFe9CVUKjO2xV-40" value="&lt;div style=&quot;&quot;&gt;&lt;span style=&quot;font-size: 10px;&quot;&gt;ログイン&lt;/span&gt;&lt;/div&gt;" style="shape=note;whiteSpace=wrap;html=1;backgroundOutline=1;fontColor=#000000;darkOpacity=0.05;fillColor=#FFF9B2;strokeColor=none;fillStyle=solid;direction=west;gradientDirection=north;gradientColor=#FFF2A1;shadow=1;size=20;pointerEvents=1;align=center;" parent="ZPtk3tzUFe9CVUKjO2xV-1" vertex="1">
          <mxGeometry x="50" y="150" width="170" height="40" as="geometry" />
        </mxCell>
        <mxCell id="ZPtk3tzUFe9CVUKjO2xV-41" value="&lt;div style=&quot;text-align: left;&quot;&gt;&lt;span style=&quot;font-size: 10px; background-color: initial;&quot;&gt;直接アクセス・ポイント情報を取得&lt;/span&gt;&lt;/div&gt;&lt;font style=&quot;font-size: 10px;&quot;&gt;　（URL, アクセス・トークン(JWT))&lt;/font&gt;" style="shape=note;whiteSpace=wrap;html=1;backgroundOutline=1;fontColor=#000000;darkOpacity=0.05;fillColor=#FFF9B2;strokeColor=none;fillStyle=solid;direction=west;gradientDirection=north;gradientColor=#FFF2A1;shadow=1;size=20;pointerEvents=1;" parent="ZPtk3tzUFe9CVUKjO2xV-1" vertex="1">
          <mxGeometry x="50" y="270" width="170" height="40" as="geometry" />
        </mxCell>
        <mxCell id="ZPtk3tzUFe9CVUKjO2xV-42" value="GET /map/{z}/{x}/{y}.pbf" style="html=1;verticalAlign=bottom;endArrow=block;edgeStyle=elbowEdgeStyle;elbow=horizontal;curved=0;rounded=0;" parent="ZPtk3tzUFe9CVUKjO2xV-1" target="ZPtk3tzUFe9CVUKjO2xV-34" edge="1">
          <mxGeometry relative="1" as="geometry">
            <mxPoint x="255" y="420" as="sourcePoint" />
            <Array as="points">
              <mxPoint x="335" y="420" />
            </Array>
            <mxPoint x="610" y="420" as="targetPoint" />
          </mxGeometry>
        </mxCell>
        <mxCell id="wXSeQ0_qHViltJEvLt2u-0" value="Text" style="edgeLabel;html=1;align=center;verticalAlign=middle;resizable=0;points=[];" vertex="1" connectable="0" parent="ZPtk3tzUFe9CVUKjO2xV-42">
          <mxGeometry x="-0.1011" y="2" relative="1" as="geometry">
            <mxPoint as="offset" />
          </mxGeometry>
        </mxCell>
        <mxCell id="wXSeQ0_qHViltJEvLt2u-1" value="Text" style="edgeLabel;html=1;align=center;verticalAlign=middle;resizable=0;points=[];" vertex="1" connectable="0" parent="ZPtk3tzUFe9CVUKjO2xV-42">
          <mxGeometry x="0.21" y="1" relative="1" as="geometry">
            <mxPoint as="offset" />
          </mxGeometry>
        </mxCell>
        <mxCell id="ZPtk3tzUFe9CVUKjO2xV-43" value="GET /map/{z}/{x}/{y}.pbf" style="html=1;verticalAlign=bottom;endArrow=block;edgeStyle=elbowEdgeStyle;elbow=horizontal;curved=0;rounded=0;" parent="ZPtk3tzUFe9CVUKjO2xV-1" target="ZPtk3tzUFe9CVUKjO2xV-37" edge="1">
          <mxGeometry relative="1" as="geometry">
            <mxPoint x="624.9999999999998" y="430" as="sourcePoint" />
            <Array as="points">
              <mxPoint x="710" y="430" />
            </Array>
            <mxPoint x="990" y="430" as="targetPoint" />
          </mxGeometry>
        </mxCell>
        <mxCell id="ZPtk3tzUFe9CVUKjO2xV-44" value="200 OK" style="html=1;verticalAlign=bottom;endArrow=block;edgeStyle=elbowEdgeStyle;elbow=vertical;curved=0;rounded=0;dashed=1;" parent="ZPtk3tzUFe9CVUKjO2xV-1" source="ZPtk3tzUFe9CVUKjO2xV-37" target="ZPtk3tzUFe9CVUKjO2xV-34" edge="1">
          <mxGeometry relative="1" as="geometry">
            <mxPoint x="760" y="450" as="sourcePoint" />
            <Array as="points">
              <mxPoint x="690" y="450" />
            </Array>
            <mxPoint x="590" y="450" as="targetPoint" />
          </mxGeometry>
        </mxCell>
        <mxCell id="ZPtk3tzUFe9CVUKjO2xV-45" value="200 OK" style="html=1;verticalAlign=bottom;endArrow=block;edgeStyle=elbowEdgeStyle;elbow=vertical;curved=0;rounded=0;dashed=1;" parent="ZPtk3tzUFe9CVUKjO2xV-1" source="ZPtk3tzUFe9CVUKjO2xV-34" target="ZPtk3tzUFe9CVUKjO2xV-29" edge="1">
          <mxGeometry relative="1" as="geometry">
            <mxPoint x="610" y="460" as="sourcePoint" />
            <Array as="points">
              <mxPoint x="535" y="460" />
            </Array>
            <mxPoint x="470" y="460" as="targetPoint" />
          </mxGeometry>
        </mxCell>
        <mxCell id="ZPtk3tzUFe9CVUKjO2xV-46" value="&lt;div style=&quot;text-align: left;&quot;&gt;&lt;span style=&quot;font-size: 10px;&quot;&gt;直接アクセス・ポイントのみ使用。&lt;br&gt;　　（全てのアクセスを担う）&lt;/span&gt;&lt;/div&gt;" style="shape=note;whiteSpace=wrap;html=1;backgroundOutline=1;fontColor=#000000;darkOpacity=0.05;fillColor=#FFF9B2;strokeColor=none;fillStyle=solid;direction=west;gradientDirection=north;gradientColor=#FFF2A1;shadow=1;size=20;pointerEvents=1;" parent="ZPtk3tzUFe9CVUKjO2xV-1" vertex="1">
          <mxGeometry x="50" y="410" width="170" height="40" as="geometry" />
        </mxCell>
        <mxCell id="ZPtk3tzUFe9CVUKjO2xV-47" value="&lt;font style=&quot;font-size: 18px;&quot;&gt;アプリが車両情報連携システム(C-2-2[A])と直接通信する場合&lt;/font&gt;" style="text;strokeColor=none;fillColor=none;html=1;fontSize=24;fontStyle=1;verticalAlign=middle;align=center;" parent="ZPtk3tzUFe9CVUKjO2xV-1" vertex="1">
          <mxGeometry width="520" height="40" as="geometry" />
        </mxCell>
        <mxCell id="ZPtk3tzUFe9CVUKjO2xV-57" value="&lt;font style=&quot;font-size: 11px; font-weight: normal;&quot;&gt;GET /{targetDataModel}&lt;/font&gt;" style="text;strokeColor=none;fillColor=none;html=1;fontSize=24;fontStyle=1;verticalAlign=middle;align=center;" parent="ZPtk3tzUFe9CVUKjO2xV-1" vertex="1">
          <mxGeometry x="360" y="370" width="150" height="40" as="geometry" />
        </mxCell>
        <mxCell id="ZPtk3tzUFe9CVUKjO2xV-58" value="&lt;font style=&quot;font-size: 11px; font-weight: normal;&quot;&gt;GET /{targetDataModel}&lt;/font&gt;" style="text;strokeColor=none;fillColor=none;html=1;fontSize=24;fontStyle=1;verticalAlign=middle;align=center;" parent="ZPtk3tzUFe9CVUKjO2xV-1" vertex="1">
          <mxGeometry x="620" y="380" width="150" height="30" as="geometry" />
        </mxCell>
        <mxCell id="ZPtk3tzUFe9CVUKjO2xV-62" value="" style="shape=doubleArrow;whiteSpace=wrap;html=1;fillColor=#e1d5e7;strokeColor=#9673a6;" parent="ZPtk3tzUFe9CVUKjO2xV-1" vertex="1">
          <mxGeometry x="680" y="90" width="40" height="20" as="geometry" />
        </mxCell>
        <mxCell id="ZPtk3tzUFe9CVUKjO2xV-63" value="&lt;span style=&quot;font-size: 8px;&quot;&gt;認証済みの前提&lt;/span&gt;" style="whiteSpace=wrap;html=1;rounded=1;arcSize=50;align=center;verticalAlign=middle;strokeWidth=1;autosize=1;spacing=4;treeFolding=1;treeMoving=1;newEdgeStyle={&quot;edgeStyle&quot;:&quot;entityRelationEdgeStyle&quot;,&quot;startArrow&quot;:&quot;none&quot;,&quot;endArrow&quot;:&quot;none&quot;,&quot;segment&quot;:10,&quot;curved&quot;:1,&quot;sourcePerimeterSpacing&quot;:0,&quot;targetPerimeterSpacing&quot;:0};" parent="ZPtk3tzUFe9CVUKjO2xV-1" vertex="1">
          <mxGeometry x="740" y="20" width="100" height="30" as="geometry" />
        </mxCell>
        <mxCell id="ZPtk3tzUFe9CVUKjO2xV-64" value="" style="edgeStyle=entityRelationEdgeStyle;startArrow=none;endArrow=none;segment=10;curved=1;sourcePerimeterSpacing=0;targetPerimeterSpacing=0;rounded=0;" parent="ZPtk3tzUFe9CVUKjO2xV-1" target="ZPtk3tzUFe9CVUKjO2xV-63" edge="1">
          <mxGeometry relative="1" as="geometry">
            <mxPoint x="700" y="90" as="sourcePoint" />
            <Array as="points">
              <mxPoint x="700" y="50" />
            </Array>
          </mxGeometry>
        </mxCell>
      </root>
    </mxGraphModel>
  </diagram>
  <diagram name="C-2-2[B]直結" id="W09oZ4LH9ulDeSqZCkFV">
    <mxGraphModel dx="1036" dy="-398" grid="1" gridSize="10" guides="1" tooltips="1" connect="1" arrows="1" fold="1" page="1" pageScale="1" pageWidth="850" pageHeight="1100" math="0" shadow="0">
      <root>
        <mxCell id="ruvBuBlSj2xhvu7RqnBg-0" />
        <mxCell id="ruvBuBlSj2xhvu7RqnBg-1" parent="ruvBuBlSj2xhvu7RqnBg-0" />
        <mxCell id="ruvBuBlSj2xhvu7RqnBg-65" value=":App" style="shape=umlLifeline;perimeter=lifelinePerimeter;whiteSpace=wrap;html=1;container=0;dropTarget=0;collapsible=0;recursiveResize=0;outlineConnect=0;portConstraint=eastwest;newEdgeStyle={&quot;edgeStyle&quot;:&quot;elbowEdgeStyle&quot;,&quot;elbow&quot;:&quot;vertical&quot;,&quot;curved&quot;:0,&quot;rounded&quot;:0};" parent="ruvBuBlSj2xhvu7RqnBg-1" vertex="1">
          <mxGeometry x="200" y="1180" width="100" height="420" as="geometry" />
        </mxCell>
        <mxCell id="ruvBuBlSj2xhvu7RqnBg-66" value="" style="html=1;points=[];perimeter=orthogonalPerimeter;outlineConnect=0;targetShapes=umlLifeline;portConstraint=eastwest;newEdgeStyle={&quot;edgeStyle&quot;:&quot;elbowEdgeStyle&quot;,&quot;elbow&quot;:&quot;vertical&quot;,&quot;curved&quot;:0,&quot;rounded&quot;:0};" parent="ruvBuBlSj2xhvu7RqnBg-65" vertex="1">
          <mxGeometry x="45" y="70" width="10" height="320" as="geometry" />
        </mxCell>
        <mxCell id="ruvBuBlSj2xhvu7RqnBg-67" value="login" style="html=1;verticalAlign=bottom;endArrow=block;edgeStyle=elbowEdgeStyle;elbow=horizontal;curved=0;rounded=0;" parent="ruvBuBlSj2xhvu7RqnBg-1" target="ruvBuBlSj2xhvu7RqnBg-72" edge="1">
          <mxGeometry relative="1" as="geometry">
            <mxPoint x="256" y="1260" as="sourcePoint" />
            <Array as="points">
              <mxPoint x="341" y="1260" />
            </Array>
            <mxPoint x="426" y="1260" as="targetPoint" />
          </mxGeometry>
        </mxCell>
        <mxCell id="ruvBuBlSj2xhvu7RqnBg-68" value="201 created" style="html=1;verticalAlign=bottom;endArrow=block;edgeStyle=elbowEdgeStyle;elbow=vertical;curved=0;rounded=0;dashed=1;" parent="ruvBuBlSj2xhvu7RqnBg-1" source="ruvBuBlSj2xhvu7RqnBg-72" target="ruvBuBlSj2xhvu7RqnBg-66" edge="1">
          <mxGeometry relative="1" as="geometry">
            <mxPoint x="335" y="1300" as="sourcePoint" />
            <Array as="points">
              <mxPoint x="350" y="1300" />
            </Array>
            <mxPoint x="260" y="1300" as="targetPoint" />
          </mxGeometry>
        </mxCell>
        <mxCell id="ruvBuBlSj2xhvu7RqnBg-69" value=":C-2-2 [B]" style="shape=umlLifeline;perimeter=lifelinePerimeter;whiteSpace=wrap;html=1;container=0;dropTarget=0;collapsible=0;recursiveResize=0;outlineConnect=0;portConstraint=eastwest;newEdgeStyle={&quot;edgeStyle&quot;:&quot;elbowEdgeStyle&quot;,&quot;elbow&quot;:&quot;vertical&quot;,&quot;curved&quot;:0,&quot;rounded&quot;:0};" parent="ruvBuBlSj2xhvu7RqnBg-1" vertex="1">
          <mxGeometry x="560" y="1180" width="120" height="420" as="geometry" />
        </mxCell>
        <mxCell id="ruvBuBlSj2xhvu7RqnBg-70" value="" style="html=1;points=[];perimeter=orthogonalPerimeter;outlineConnect=0;targetShapes=umlLifeline;portConstraint=eastwest;newEdgeStyle={&quot;edgeStyle&quot;:&quot;elbowEdgeStyle&quot;,&quot;elbow&quot;:&quot;vertical&quot;,&quot;curved&quot;:0,&quot;rounded&quot;:0};" parent="ruvBuBlSj2xhvu7RqnBg-69" vertex="1">
          <mxGeometry x="55" y="200" width="10" height="50" as="geometry" />
        </mxCell>
        <mxCell id="ruvBuBlSj2xhvu7RqnBg-71" value="" style="html=1;points=[];perimeter=orthogonalPerimeter;outlineConnect=0;targetShapes=umlLifeline;portConstraint=eastwest;newEdgeStyle={&quot;edgeStyle&quot;:&quot;elbowEdgeStyle&quot;,&quot;elbow&quot;:&quot;vertical&quot;,&quot;curved&quot;:0,&quot;rounded&quot;:0};" parent="ruvBuBlSj2xhvu7RqnBg-69" vertex="1">
          <mxGeometry x="55" y="330" width="10" height="60" as="geometry" />
        </mxCell>
        <mxCell id="ruvBuBlSj2xhvu7RqnBg-72" value="" style="html=1;points=[];perimeter=orthogonalPerimeter;outlineConnect=0;targetShapes=umlLifeline;portConstraint=eastwest;newEdgeStyle={&quot;edgeStyle&quot;:&quot;elbowEdgeStyle&quot;,&quot;elbow&quot;:&quot;vertical&quot;,&quot;curved&quot;:0,&quot;rounded&quot;:0};" parent="ruvBuBlSj2xhvu7RqnBg-69" vertex="1">
          <mxGeometry x="55" y="80" width="10" height="60" as="geometry" />
        </mxCell>
        <mxCell id="ruvBuBlSj2xhvu7RqnBg-73" value="GET /Facade" style="html=1;verticalAlign=bottom;endArrow=block;edgeStyle=elbowEdgeStyle;elbow=horizontal;curved=0;rounded=0;" parent="ruvBuBlSj2xhvu7RqnBg-1" source="ruvBuBlSj2xhvu7RqnBg-66" target="ruvBuBlSj2xhvu7RqnBg-70" edge="1">
          <mxGeometry relative="1" as="geometry">
            <mxPoint x="434.9999999999998" y="1389.9999999999998" as="sourcePoint" />
            <Array as="points">
              <mxPoint x="520" y="1390" />
            </Array>
            <mxPoint x="610" y="1390" as="targetPoint" />
          </mxGeometry>
        </mxCell>
        <mxCell id="ruvBuBlSj2xhvu7RqnBg-74" value="200 OK" style="html=1;verticalAlign=bottom;endArrow=block;edgeStyle=elbowEdgeStyle;elbow=vertical;curved=0;rounded=0;dashed=1;" parent="ruvBuBlSj2xhvu7RqnBg-1" source="ruvBuBlSj2xhvu7RqnBg-70" target="ruvBuBlSj2xhvu7RqnBg-66" edge="1">
          <mxGeometry relative="1" as="geometry">
            <mxPoint x="610" y="1420" as="sourcePoint" />
            <Array as="points">
              <mxPoint x="535" y="1420" />
            </Array>
            <mxPoint x="434.9999999999998" y="1419.9999999999998" as="targetPoint" />
          </mxGeometry>
        </mxCell>
        <mxCell id="ruvBuBlSj2xhvu7RqnBg-75" value="&lt;div style=&quot;&quot;&gt;&lt;span style=&quot;font-size: 10px;&quot;&gt;ログイン&lt;/span&gt;&lt;/div&gt;" style="shape=note;whiteSpace=wrap;html=1;backgroundOutline=1;fontColor=#000000;darkOpacity=0.05;fillColor=#FFF9B2;strokeColor=none;fillStyle=solid;direction=west;gradientDirection=north;gradientColor=#FFF2A1;shadow=1;size=20;pointerEvents=1;align=center;" parent="ruvBuBlSj2xhvu7RqnBg-1" vertex="1">
          <mxGeometry x="50" y="1250" width="170" height="40" as="geometry" />
        </mxCell>
        <mxCell id="ruvBuBlSj2xhvu7RqnBg-76" value="&lt;div style=&quot;text-align: left;&quot;&gt;&lt;span style=&quot;font-size: 10px; background-color: initial;&quot;&gt;直接アクセス・ポイント情報を取得&lt;/span&gt;&lt;/div&gt;&lt;font style=&quot;font-size: 10px;&quot;&gt;　（URL, アクセス・トークン(JWT))&lt;/font&gt;" style="shape=note;whiteSpace=wrap;html=1;backgroundOutline=1;fontColor=#000000;darkOpacity=0.05;fillColor=#FFF9B2;strokeColor=none;fillStyle=solid;direction=west;gradientDirection=north;gradientColor=#FFF2A1;shadow=1;size=20;pointerEvents=1;" parent="ruvBuBlSj2xhvu7RqnBg-1" vertex="1">
          <mxGeometry x="50" y="1370" width="170" height="40" as="geometry" />
        </mxCell>
        <mxCell id="ruvBuBlSj2xhvu7RqnBg-77" value="GET /map/{z}/{x}/{y}.pbf" style="html=1;verticalAlign=bottom;endArrow=block;edgeStyle=elbowEdgeStyle;elbow=horizontal;curved=0;rounded=0;" parent="ruvBuBlSj2xhvu7RqnBg-1" target="ruvBuBlSj2xhvu7RqnBg-71" edge="1">
          <mxGeometry relative="1" as="geometry">
            <mxPoint x="255" y="1520" as="sourcePoint" />
            <Array as="points">
              <mxPoint x="335" y="1520" />
            </Array>
            <mxPoint x="610" y="1520" as="targetPoint" />
          </mxGeometry>
        </mxCell>
        <mxCell id="ruvBuBlSj2xhvu7RqnBg-78" value="200 OK" style="html=1;verticalAlign=bottom;endArrow=block;edgeStyle=elbowEdgeStyle;elbow=vertical;curved=0;rounded=0;dashed=1;" parent="ruvBuBlSj2xhvu7RqnBg-1" source="ruvBuBlSj2xhvu7RqnBg-71" target="ruvBuBlSj2xhvu7RqnBg-66" edge="1">
          <mxGeometry relative="1" as="geometry">
            <mxPoint x="610" y="1560" as="sourcePoint" />
            <Array as="points">
              <mxPoint x="535" y="1560" />
            </Array>
            <mxPoint x="470" y="1560" as="targetPoint" />
          </mxGeometry>
        </mxCell>
        <mxCell id="ruvBuBlSj2xhvu7RqnBg-79" value="&lt;div style=&quot;text-align: left;&quot;&gt;&lt;span style=&quot;font-size: 10px;&quot;&gt;直接アクセス・ポイントのみ使用。&lt;br&gt;　　（全てのアクセスを担う）&lt;/span&gt;&lt;/div&gt;" style="shape=note;whiteSpace=wrap;html=1;backgroundOutline=1;fontColor=#000000;darkOpacity=0.05;fillColor=#FFF9B2;strokeColor=none;fillStyle=solid;direction=west;gradientDirection=north;gradientColor=#FFF2A1;shadow=1;size=20;pointerEvents=1;" parent="ruvBuBlSj2xhvu7RqnBg-1" vertex="1">
          <mxGeometry x="50" y="1510" width="170" height="40" as="geometry" />
        </mxCell>
        <mxCell id="ruvBuBlSj2xhvu7RqnBg-80" value="&lt;font style=&quot;font-size: 18px;&quot;&gt;アプリが車両情報連携システム(C-2-2[B])と直接通信する場合&lt;/font&gt;" style="text;strokeColor=none;fillColor=none;html=1;fontSize=24;fontStyle=1;verticalAlign=middle;align=center;" parent="ruvBuBlSj2xhvu7RqnBg-1" vertex="1">
          <mxGeometry y="1100" width="520" height="40" as="geometry" />
        </mxCell>
        <mxCell id="ruvBuBlSj2xhvu7RqnBg-81" value="&lt;font style=&quot;font-size: 11px; font-weight: normal;&quot;&gt;GET /{targetDataModel}&lt;/font&gt;" style="text;strokeColor=none;fillColor=none;html=1;fontSize=24;fontStyle=1;verticalAlign=middle;align=center;" parent="ruvBuBlSj2xhvu7RqnBg-1" vertex="1">
          <mxGeometry x="360" y="1470" width="150" height="40" as="geometry" />
        </mxCell>
        <mxCell id="ruvBuBlSj2xhvu7RqnBg-82" value="&lt;span style=&quot;font-size: 8px;&quot;&gt;C-2-2[A]提供機能は利用不可&lt;/span&gt;" style="whiteSpace=wrap;html=1;rounded=1;arcSize=50;align=center;verticalAlign=middle;strokeWidth=1;autosize=1;spacing=4;treeFolding=1;treeMoving=1;newEdgeStyle={&quot;edgeStyle&quot;:&quot;entityRelationEdgeStyle&quot;,&quot;startArrow&quot;:&quot;none&quot;,&quot;endArrow&quot;:&quot;none&quot;,&quot;segment&quot;:10,&quot;curved&quot;:1,&quot;sourcePerimeterSpacing&quot;:0,&quot;targetPerimeterSpacing&quot;:0};" parent="ruvBuBlSj2xhvu7RqnBg-1" vertex="1">
          <mxGeometry x="350" y="1160" width="155" height="30" as="geometry" />
        </mxCell>
        <mxCell id="ruvBuBlSj2xhvu7RqnBg-83" value="" style="edgeStyle=entityRelationEdgeStyle;startArrow=none;endArrow=none;segment=10;curved=1;sourcePerimeterSpacing=0;targetPerimeterSpacing=0;rounded=0;" parent="ruvBuBlSj2xhvu7RqnBg-1" target="ruvBuBlSj2xhvu7RqnBg-82" edge="1">
          <mxGeometry relative="1" as="geometry">
            <mxPoint x="310" y="1200" as="sourcePoint" />
            <Array as="points">
              <mxPoint x="320" y="1190" />
            </Array>
          </mxGeometry>
        </mxCell>
      </root>
    </mxGraphModel>
  </diagram>
  <diagram name="[A]-[B]間認証" id="tKTYD4GoAQtF3ZB4DoNi">
    <mxGraphModel dx="1036" dy="-398" grid="1" gridSize="10" guides="1" tooltips="1" connect="1" arrows="1" fold="1" page="1" pageScale="1" pageWidth="850" pageHeight="1100" math="0" shadow="0">
      <root>
        <mxCell id="_GaiJVjywk3t3n0SARvJ-0" />
        <mxCell id="_GaiJVjywk3t3n0SARvJ-1" parent="_GaiJVjywk3t3n0SARvJ-0" />
        <mxCell id="_GaiJVjywk3t3n0SARvJ-84" value=":C-2-2[A]" style="shape=umlLifeline;perimeter=lifelinePerimeter;whiteSpace=wrap;html=1;container=0;dropTarget=0;collapsible=0;recursiveResize=0;outlineConnect=0;portConstraint=eastwest;newEdgeStyle={&quot;edgeStyle&quot;:&quot;elbowEdgeStyle&quot;,&quot;elbow&quot;:&quot;vertical&quot;,&quot;curved&quot;:0,&quot;rounded&quot;:0};" parent="_GaiJVjywk3t3n0SARvJ-1" vertex="1">
          <mxGeometry x="200" y="1180" width="100" height="420" as="geometry" />
        </mxCell>
        <mxCell id="_GaiJVjywk3t3n0SARvJ-85" value="" style="html=1;points=[];perimeter=orthogonalPerimeter;outlineConnect=0;targetShapes=umlLifeline;portConstraint=eastwest;newEdgeStyle={&quot;edgeStyle&quot;:&quot;elbowEdgeStyle&quot;,&quot;elbow&quot;:&quot;vertical&quot;,&quot;curved&quot;:0,&quot;rounded&quot;:0};" parent="_GaiJVjywk3t3n0SARvJ-84" vertex="1">
          <mxGeometry x="45" y="70" width="10" height="320" as="geometry" />
        </mxCell>
        <mxCell id="_GaiJVjywk3t3n0SARvJ-86" value="login" style="html=1;verticalAlign=bottom;endArrow=block;edgeStyle=elbowEdgeStyle;elbow=horizontal;curved=0;rounded=0;" parent="_GaiJVjywk3t3n0SARvJ-1" target="_GaiJVjywk3t3n0SARvJ-91" edge="1">
          <mxGeometry relative="1" as="geometry">
            <mxPoint x="256" y="1260" as="sourcePoint" />
            <Array as="points">
              <mxPoint x="341" y="1260" />
            </Array>
            <mxPoint x="426" y="1260" as="targetPoint" />
          </mxGeometry>
        </mxCell>
        <mxCell id="_GaiJVjywk3t3n0SARvJ-87" value="201 created" style="html=1;verticalAlign=bottom;endArrow=block;edgeStyle=elbowEdgeStyle;elbow=vertical;curved=0;rounded=0;dashed=1;" parent="_GaiJVjywk3t3n0SARvJ-1" source="_GaiJVjywk3t3n0SARvJ-91" target="_GaiJVjywk3t3n0SARvJ-85" edge="1">
          <mxGeometry relative="1" as="geometry">
            <mxPoint x="335" y="1300" as="sourcePoint" />
            <Array as="points">
              <mxPoint x="350" y="1300" />
            </Array>
            <mxPoint x="260" y="1300" as="targetPoint" />
          </mxGeometry>
        </mxCell>
        <mxCell id="_GaiJVjywk3t3n0SARvJ-88" value=":C-2-2 [B]" style="shape=umlLifeline;perimeter=lifelinePerimeter;whiteSpace=wrap;html=1;container=0;dropTarget=0;collapsible=0;recursiveResize=0;outlineConnect=0;portConstraint=eastwest;newEdgeStyle={&quot;edgeStyle&quot;:&quot;elbowEdgeStyle&quot;,&quot;elbow&quot;:&quot;vertical&quot;,&quot;curved&quot;:0,&quot;rounded&quot;:0};" parent="_GaiJVjywk3t3n0SARvJ-1" vertex="1">
          <mxGeometry x="560" y="1180" width="120" height="420" as="geometry" />
        </mxCell>
        <mxCell id="_GaiJVjywk3t3n0SARvJ-89" value="" style="html=1;points=[];perimeter=orthogonalPerimeter;outlineConnect=0;targetShapes=umlLifeline;portConstraint=eastwest;newEdgeStyle={&quot;edgeStyle&quot;:&quot;elbowEdgeStyle&quot;,&quot;elbow&quot;:&quot;vertical&quot;,&quot;curved&quot;:0,&quot;rounded&quot;:0};" parent="_GaiJVjywk3t3n0SARvJ-88" vertex="1">
          <mxGeometry x="55" y="200" width="10" height="50" as="geometry" />
        </mxCell>
        <mxCell id="_GaiJVjywk3t3n0SARvJ-90" value="" style="html=1;points=[];perimeter=orthogonalPerimeter;outlineConnect=0;targetShapes=umlLifeline;portConstraint=eastwest;newEdgeStyle={&quot;edgeStyle&quot;:&quot;elbowEdgeStyle&quot;,&quot;elbow&quot;:&quot;vertical&quot;,&quot;curved&quot;:0,&quot;rounded&quot;:0};" parent="_GaiJVjywk3t3n0SARvJ-88" vertex="1">
          <mxGeometry x="55" y="330" width="10" height="60" as="geometry" />
        </mxCell>
        <mxCell id="_GaiJVjywk3t3n0SARvJ-91" value="" style="html=1;points=[];perimeter=orthogonalPerimeter;outlineConnect=0;targetShapes=umlLifeline;portConstraint=eastwest;newEdgeStyle={&quot;edgeStyle&quot;:&quot;elbowEdgeStyle&quot;,&quot;elbow&quot;:&quot;vertical&quot;,&quot;curved&quot;:0,&quot;rounded&quot;:0};" parent="_GaiJVjywk3t3n0SARvJ-88" vertex="1">
          <mxGeometry x="55" y="80" width="10" height="60" as="geometry" />
        </mxCell>
        <mxCell id="_GaiJVjywk3t3n0SARvJ-92" value="GET /Facade" style="html=1;verticalAlign=bottom;endArrow=block;edgeStyle=elbowEdgeStyle;elbow=horizontal;curved=0;rounded=0;" parent="_GaiJVjywk3t3n0SARvJ-1" source="_GaiJVjywk3t3n0SARvJ-85" target="_GaiJVjywk3t3n0SARvJ-89" edge="1">
          <mxGeometry relative="1" as="geometry">
            <mxPoint x="434.9999999999998" y="1390" as="sourcePoint" />
            <Array as="points">
              <mxPoint x="520" y="1390" />
            </Array>
            <mxPoint x="610" y="1390" as="targetPoint" />
          </mxGeometry>
        </mxCell>
        <mxCell id="_GaiJVjywk3t3n0SARvJ-93" value="200 OK" style="html=1;verticalAlign=bottom;endArrow=block;edgeStyle=elbowEdgeStyle;elbow=vertical;curved=0;rounded=0;dashed=1;" parent="_GaiJVjywk3t3n0SARvJ-1" source="_GaiJVjywk3t3n0SARvJ-89" target="_GaiJVjywk3t3n0SARvJ-85" edge="1">
          <mxGeometry relative="1" as="geometry">
            <mxPoint x="610" y="1420" as="sourcePoint" />
            <Array as="points">
              <mxPoint x="535" y="1420" />
            </Array>
            <mxPoint x="434.9999999999998" y="1420" as="targetPoint" />
          </mxGeometry>
        </mxCell>
        <mxCell id="_GaiJVjywk3t3n0SARvJ-94" value="&lt;div style=&quot;&quot;&gt;&lt;span style=&quot;font-size: 10px;&quot;&gt;ログイン&lt;/span&gt;&lt;/div&gt;" style="shape=note;whiteSpace=wrap;html=1;backgroundOutline=1;fontColor=#000000;darkOpacity=0.05;fillColor=#FFF9B2;strokeColor=none;fillStyle=solid;direction=west;gradientDirection=north;gradientColor=#FFF2A1;shadow=1;size=20;pointerEvents=1;align=center;" parent="_GaiJVjywk3t3n0SARvJ-1" vertex="1">
          <mxGeometry x="50" y="1250" width="170" height="40" as="geometry" />
        </mxCell>
        <mxCell id="_GaiJVjywk3t3n0SARvJ-95" value="&lt;div style=&quot;text-align: left;&quot;&gt;&lt;span style=&quot;font-size: 10px;&quot;&gt;アクセス・トークン(JWT)の有効性を保つため、定期的にアクセス・トークンを取得する必要がある。&lt;/span&gt;&lt;/div&gt;" style="shape=note;whiteSpace=wrap;html=1;backgroundOutline=1;fontColor=#000000;darkOpacity=0.05;fillColor=#FFF9B2;strokeColor=none;fillStyle=solid;direction=west;gradientDirection=north;gradientColor=#FFF2A1;shadow=1;size=20;pointerEvents=1;" parent="_GaiJVjywk3t3n0SARvJ-1" vertex="1">
          <mxGeometry x="50" y="1370" width="170" height="60" as="geometry" />
        </mxCell>
        <mxCell id="_GaiJVjywk3t3n0SARvJ-96" value="GET /map/{z}/{x}/{y}.pbf" style="html=1;verticalAlign=bottom;endArrow=block;edgeStyle=elbowEdgeStyle;elbow=horizontal;curved=0;rounded=0;" parent="_GaiJVjywk3t3n0SARvJ-1" target="_GaiJVjywk3t3n0SARvJ-90" edge="1">
          <mxGeometry relative="1" as="geometry">
            <mxPoint x="255" y="1520" as="sourcePoint" />
            <Array as="points">
              <mxPoint x="335" y="1520" />
            </Array>
            <mxPoint x="610" y="1520" as="targetPoint" />
          </mxGeometry>
        </mxCell>
        <mxCell id="_GaiJVjywk3t3n0SARvJ-97" value="200 OK" style="html=1;verticalAlign=bottom;endArrow=block;edgeStyle=elbowEdgeStyle;elbow=vertical;curved=0;rounded=0;dashed=1;" parent="_GaiJVjywk3t3n0SARvJ-1" source="_GaiJVjywk3t3n0SARvJ-90" target="_GaiJVjywk3t3n0SARvJ-85" edge="1">
          <mxGeometry relative="1" as="geometry">
            <mxPoint x="610" y="1560" as="sourcePoint" />
            <Array as="points">
              <mxPoint x="535" y="1560" />
            </Array>
            <mxPoint x="470" y="1560" as="targetPoint" />
          </mxGeometry>
        </mxCell>
        <mxCell id="_GaiJVjywk3t3n0SARvJ-98" value="&lt;div style=&quot;text-align: left;&quot;&gt;&lt;span style=&quot;font-size: 10px;&quot;&gt;任意の C-2-2[B] API 呼び出し。&lt;/span&gt;&lt;/div&gt;" style="shape=note;whiteSpace=wrap;html=1;backgroundOutline=1;fontColor=#000000;darkOpacity=0.05;fillColor=#FFF9B2;strokeColor=none;fillStyle=solid;direction=west;gradientDirection=north;gradientColor=#FFF2A1;shadow=1;size=20;pointerEvents=1;" parent="_GaiJVjywk3t3n0SARvJ-1" vertex="1">
          <mxGeometry x="50" y="1510" width="170" height="40" as="geometry" />
        </mxCell>
        <mxCell id="_GaiJVjywk3t3n0SARvJ-99" value="&lt;font style=&quot;font-size: 18px;&quot;&gt;C-2-2[A]：C-2-2[B]の認証トークン取得&lt;/font&gt;" style="text;strokeColor=none;fillColor=none;html=1;fontSize=24;fontStyle=1;verticalAlign=middle;align=center;" parent="_GaiJVjywk3t3n0SARvJ-1" vertex="1">
          <mxGeometry y="1100" width="520" height="40" as="geometry" />
        </mxCell>
        <mxCell id="_GaiJVjywk3t3n0SARvJ-100" value="&lt;font style=&quot;font-size: 11px; font-weight: normal;&quot;&gt;GET /{targetDataModel}&lt;/font&gt;" style="text;strokeColor=none;fillColor=none;html=1;fontSize=24;fontStyle=1;verticalAlign=middle;align=center;" parent="_GaiJVjywk3t3n0SARvJ-1" vertex="1">
          <mxGeometry x="360" y="1470" width="150" height="30" as="geometry" />
        </mxCell>
        <mxCell id="PsU1UMpSRpBrP1QGQddg-0" value="&lt;div style=&quot;&quot;&gt;&lt;span style=&quot;font-size: 10px;&quot;&gt;[A]⇔[B]間は、相互に相手が特定できているため、特に認証の必要は無い。&lt;/span&gt;&lt;/div&gt;&lt;div style=&quot;&quot;&gt;&lt;span style=&quot;font-size: 10px;&quot;&gt;IP制限などで代替する方が簡単。敢えて認証するなら、下記の通り。&lt;/span&gt;&lt;/div&gt;" style="shape=note;whiteSpace=wrap;html=1;backgroundOutline=1;fontColor=#000000;darkOpacity=0.05;fillColor=#FFF9B2;strokeColor=none;fillStyle=solid;direction=west;gradientDirection=north;gradientColor=#FFF2A1;shadow=1;size=20;pointerEvents=1;align=left;" parent="_GaiJVjywk3t3n0SARvJ-1" vertex="1">
          <mxGeometry x="459" y="1110" width="340" height="50" as="geometry" />
        </mxCell>
      </root>
    </mxGraphModel>
  </diagram>
</mxfile>
